{"title":"Cooley High (1975) [thePiratePimp]","uid":11878750,"size":734267392,"categoryP":"video","categoryS":"movies","magnet":"?xt=urn:btih:1a71b2a7feeed1caa94e843983263e0993529141&amp;dn=Cooley+High+%281975%29+%5BthePiratePimp%5D&amp;tr=udp%3A%2F%2Ftracker.openbittorrent.com%3A80&amp;tr=udp%3A%2F%2Fopen.demonii.com%3A1337&amp;tr=udp%3A%2F%2Ftracker.coppersurfer.tk%3A6969&amp;tr=udp%3A%2F%2Fexodus.desync.com%3A6969","seeders":4,"leechers":0,"uploader":"thepiratepimp","files":1,"time":1430633315,"description":"Cooley High (1975) [thePiratePimp]\n &lt;a href=&quot;\nhttps://yuq.me/users/23/020/2MytACX4zN.jpg&quot; rel=&quot;nofollow&quot; target=&quot;_NEW&quot;&gt;\nhttps://yuq.me/users/23/020/2MytACX4zN.jpg&lt;/a&gt; &lt;a href=&quot;\nhttps://yuq.me/users/23/020/lPASeCi1tK.jpg&quot; rel=&quot;nofollow&quot; target=&quot;_NEW&quot;&gt;\nhttps://yuq.me/users/23/020/lPASeCi1tK.jpg&lt;/a&gt; &lt;a href=&quot;\nhttps://yuq.me/users/23/020/zjvnISkdQY.png&quot; rel=&quot;nofollow&quot; target=&quot;_NEW&quot;&gt;\nhttps://yuq.me/users/23/020/zjvnISkdQY.png&lt;/a&gt;\n\nCooley High is a 1975 American film based upon the real high school located on the near north side of Chicago produced and released by American International Pictures and written by Eric Monte (co-creator of Good Times). The film, set in 1964 Chicago, Illinois, stars Glynn Turman and Lawrence Hilton-Jacobs, and features a soundtrack made up primarily of 1960s Motown hits.\n\nThe film is considered a classic of black cinema, and its soundtrack featured a new Motown recording, G.C. Cameron's hit single &quot;It's So Hard to Say Goodbye to Yesterday&quot;. That song was covered in 1991 by Motown act Boyz II Men on the group's first LP, named Cooleyhighharmony in honor of this film.\n\nGeneral\nComplete name : Cooley High (1975) [thePiratePimp].avi\nFormat : AVI\nFormat/Info : Audio Video Interleave\nFile size : 700 MiB\nDuration : 1h 48mn\nOverall bit rate mode : Variable\nOverall bit rate : 903 Kbps\nWriting application : VirtualDubMod 1.5.4.1 (build 2178/release)\nWriting library : VirtualDubMod build 2178/release\n\nVideo\nID : 0\nFormat : MPEG-4 Visual\nFormat profile : Advanced Simple@L5\nFormat settings, BVOP : 1\nFormat settings, QPel : No\nFormat settings, GMC : No warppoints\nFormat settings, Matrix : Custom\nCodec ID : XVID\nCodec ID/Hint : XviD\nDuration : 1h 48mn\nBit rate : 788 Kbps\nWidth : 512 pixels\nHeight : 384 pixels\nDisplay aspect ratio : 4:3\nFrame rate : 23.976 fps\nColor space : YUV\nChroma subsampling : 4:2:0\nBit depth : 8 bits\nScan type : Progressive\nCompression mode : Lossy\nBits/(Pixel*Frame) : 0.167\nStream size : 611 MiB (87%)\nWriting library : XviD 1.2.1 (UTC 2008-12-04)\n\nAudio\nID : 1\nFormat : MPEG Audio\nFormat version : Version 1\nFormat profile : Layer 3\nMode : Joint stereo\nMode extension : MS Stereo\nCodec ID : 55\nCodec ID/Hint : MP3\nDuration : 1h 48mn\nBit rate mode : Variable\nBit rate : 102 Kbps\nNominal bit rate : 128 Kbps\nChannel(s) : 2 channels\nSampling rate : 48.0 KHz\nCompression mode : Lossy\nStream size : 79.1 MiB (11%)\nAlignment : Aligned on interleaves\nInterleave, duration : 24 ms (0.58 video frame)\nInterleave, preload duration : 590 ms\nWriting library : LAME3.98r\nEncoding settings : -m j -V 4 -q 2 -lowpass 17 --abr 128\nLanguage : English","torrent":{"xt":"urn:btih:1a71b2a7feeed1caa94e843983263e0993529141","amp;dn":"Cooley+High+%281975%29+%5BthePiratePimp%5D","amp;tr":["udp%3A%2F%2Ftracker.openbittorrent.com%3A80","udp%3A%2F%2Fopen.demonii.com%3A1337","udp%3A%2F%2Ftracker.coppersurfer.tk%3A6969","udp%3A%2F%2Fexodus.desync.com%3A6969"],"infoHash":"1a71b2a7feeed1caa94e843983263e0993529141","infoHashBuffer":{"type":"Buffer","data":[26,113,178,167,254,238,209,202,169,78,132,57,131,38,62,9,147,82,145,65]},"announce":[],"urlList":[]}}